<svg xmlns="http://www.w3.org/2000/svg" xmlns:xlink="http://www.w3.org/1999/xlink" width="530" height="312" viewBox="0 0 530 312">
  <defs>
    <polygon id="vei_logo-a" points="0 .124 60.282 .124 60.282 78.41 0 78.41"/>
    <polygon id="vei_logo-c" points="0 312.876 529.083 312.876 529.083 1 0 1"/>
  </defs>
  <g fill="none" fill-rule="evenodd" transform="translate(0 -1)">
    <g transform="translate(0 .876)">
      <mask id="vei_logo-b" fill="#fff">
        <use xlink:href="#vei_logo-a"/>
      </mask>
      <path fill="#10357E" d="M26.0169,78.41 L-0.0001,0.124 L5.8079,0.124 L19.6299,42.055 C23.3459,53.438 26.5989,63.31 28.8049,72.022 L29.1549,72.022 C31.4759,63.194 35.0769,53.089 39.1419,42.055 L54.3589,0.124 L60.2819,0.124 L31.2439,78.41 L26.0169,78.41 Z" mask="url(#vei_logo-b)"/>
    </g>
    <mask id="vei_logo-d" fill="#fff">
      <use xlink:href="#vei_logo-c"/>
    </mask>
    <path fill="#10357E" d="M67.486 79.286L73.061 79.286 73.061 23.534 67.486 23.534 67.486 79.286zM70.041 12.383C67.486 12.383 65.744 10.177 65.744 7.621 65.744 5.066 67.718 2.743 70.274 2.743 72.83 2.743 74.687 4.95 74.687 7.621 74.687 10.177 72.945 12.383 70.157 12.383L70.041 12.383zM89.4403 71.9686C92.4593 73.8266 96.9893 75.8016 101.9843 75.8016 110.8123 75.8016 114.9923 71.0386 114.9923 65.2316 114.9923 59.0756 111.2763 55.8226 103.2613 52.5716 94.0863 49.0866 89.0913 44.0926 89.0913 37.3556 89.0913 29.2246 95.4803 22.2556 106.2813 22.2556 111.3923 22.2556 115.8053 23.7656 118.5933 25.7396L116.5023 30.2706C114.5283 28.8766 110.9273 26.9016 105.3523 26.9016 98.2663 26.9016 94.5503 31.4316 94.5503 36.5416 94.5503 42.3496 98.4993 44.7886 106.0493 47.9246 115.1093 51.5256 120.4523 56.0556 120.4523 64.5346 120.4523 74.0586 113.0183 80.4476 101.6353 80.4476 96.2923 80.4476 91.1823 78.9376 87.4643 76.6146L89.4403 71.9686zM164.2415 49.4349C152.0455 49.0869 136.0165 50.9449 136.0165 64.3029 136.0165 72.3169 141.3585 75.9179 147.1675 75.9179 156.4585 75.9179 161.8025 70.2259 163.6595 64.7669 164.1245 63.6049 164.2415 62.3279 164.2415 61.3989L164.2415 49.4349zM169.8165 66.0449C169.8165 70.4579 169.9325 74.9879 170.6295 79.2859L165.5185 79.2859 164.7065 71.2709 164.4735 71.2709C161.6855 75.5689 155.5295 80.5639 146.5855 80.5639 135.3195 80.5639 130.2095 72.6649 130.2095 65.2319 130.2095 52.3389 141.4755 44.5569 164.2415 44.7889L164.2415 43.2789C164.2415 37.8199 163.1945 26.7859 149.9545 26.9019 145.0765 26.9019 139.9665 28.1799 135.9005 31.0829L134.1575 27.0179C139.2695 23.6499 145.5415 22.2559 150.5355 22.2559 166.6795 22.2559 169.8165 34.3349 169.8165 44.2079L169.8165 66.0449z" mask="url(#vei_logo-d)"/>
    <polygon fill="#10357E" points="36.821 156.532 5.575 156.532 5.575 190.797 40.537 190.797 40.537 195.443 0 195.443 0 117.157 38.679 117.157 38.679 121.803 5.575 121.803 5.575 151.886 36.821 151.886" mask="url(#vei_logo-d)"/>
    <path fill="#10357E" d="M51.9212 139.6898L64.9302 174.3028C67.1362 179.7618 68.8792 184.4078 70.3892 189.1698L70.6222 189.1698C72.1312 184.5238 74.2222 179.6458 76.3132 174.3028L89.5542 139.6898 95.3612 139.6898 72.7132 195.4428 67.8332 195.4428 45.9972 139.6898 51.9212 139.6898zM141.7093 162.5717C141.8253 154.7897 138.5733 143.0587 125.1003 143.0587 112.7873 143.0587 107.5603 153.9767 106.5153 162.5717L141.7093 162.5717zM106.1673 166.9857C106.1673 184.7567 115.9233 191.8417 127.4223 191.8417 135.5533 191.8417 139.7353 190.2157 142.8713 188.7057L144.2653 193.0037C142.1743 194.1647 136.4823 196.6037 126.7253 196.6037 110.6973 196.6037 100.7083 184.9887 100.7083 168.6117 100.7083 150.0277 111.3933 138.4117 125.7953 138.4117 144.0333 138.4117 147.5173 155.6027 147.5173 163.6177 147.5173 165.1277 147.5173 165.9397 147.2843 166.9857L106.1673 166.9857zM161.5716 156.4154C161.5716 150.8404 161.4546 145.1494 161.1066 139.6894L166.2176 139.6894 166.4496 150.9564 166.7986 150.9564C169.2376 143.8714 175.0446 138.4124 182.5936 138.4124 183.4076 138.4124 184.2196 138.5284 184.9176 138.6444L184.9176 143.8714C184.1046 143.7554 183.2916 143.7554 182.2466 143.7554 174.5806 143.7554 169.1206 150.3754 167.6106 159.3194 167.2616 160.9454 167.1466 162.8044 167.1466 164.6624L167.1466 195.4424 161.5716 195.4424 161.5716 156.4154zM197.2318 139.6898L211.8668 176.1618C213.3768 180.1108 214.8868 184.6398 215.9318 188.1258L216.1648 188.1258C217.3258 184.7558 218.7198 180.3428 220.4618 175.8128L234.0518 139.6898 239.9748 139.6898 223.2508 181.2718C216.5118 198.5788 211.7518 208.9158 204.4328 215.3038 200.0198 219.0208 195.9548 220.6468 194.6758 221.1118L192.9338 216.4648C195.7218 215.4198 199.3228 213.4458 202.6908 210.3098 205.4778 207.5218 209.1958 202.8768 211.9838 196.2548 212.4468 195.0938 212.6788 194.3968 212.6788 193.8158 212.6788 193.3518 212.4468 192.5388 211.9838 191.3768L191.3078 139.6898 197.2318 139.6898zM250.429 139.6898L259.836 171.3988C261.696 177.9038 263.322 183.4788 264.599 188.8218L264.831 188.8218C266.226 183.7108 268.2 177.7878 270.407 171.3988L281.558 139.6898 286.783 139.6898 297.47 171.0508C299.793 177.9038 301.534 183.5948 302.929 188.8218L303.161 188.8218C304.324 183.5948 306.065 178.0198 308.272 171.2828L318.144 139.6898 323.836 139.6898 305.251 195.4428 300.491 195.4428 289.92 164.3138C287.597 157.5778 285.622 151.6538 284.112 145.3808L283.879 145.3808C282.254 151.8858 280.163 158.0418 277.84 164.5458L266.806 195.4428 261.928 195.4428 244.737 139.6898 250.429 139.6898zM335.3363 112.8593L340.9113 112.8593 340.9113 149.6783 341.1443 149.6783C342.7703 146.5433 345.4403 143.6393 348.6933 141.6643 351.9453 139.6903 355.7783 138.4123 359.9603 138.4123 365.1883 138.4123 379.3573 141.0843 379.3573 161.8743L379.3573 195.4423 373.7833 195.4423 373.7833 162.4553C373.7833 152.4663 369.8333 143.2913 358.4513 143.2913 350.5533 143.2913 344.0483 148.9823 341.6073 155.8353 341.0273 157.5773 340.9113 159.0873 340.9113 161.4103L340.9113 195.4423 335.3363 195.4423 335.3363 112.8593zM433.9525 162.5717C434.0675 154.7897 430.8155 143.0587 417.3435 143.0587 405.0295 143.0587 399.8035 153.9767 398.7585 162.5717L433.9525 162.5717zM398.4105 166.9857C398.4105 184.7567 408.1665 191.8417 419.6655 191.8417 427.7955 191.8417 431.9775 190.2157 435.1135 188.7057L436.5085 193.0037C434.4165 194.1647 428.7245 196.6037 418.9685 196.6037 402.9405 196.6037 392.9505 184.9887 392.9505 168.6117 392.9505 150.0277 403.6365 138.4117 418.0385 138.4117 436.2755 138.4117 439.7595 155.6027 439.7595 163.6177 439.7595 165.1277 439.7595 165.9397 439.5265 166.9857L398.4105 166.9857zM453.8138 156.4154C453.8138 150.8404 453.6978 145.1494 453.3488 139.6894L458.4598 139.6894 458.6918 150.9564 459.0418 150.9564C461.4798 143.8714 467.2878 138.4124 474.8358 138.4124 475.6508 138.4124 476.4628 138.5284 477.1598 138.6444L477.1598 143.8714C476.3468 143.7554 475.5338 143.7554 474.4888 143.7554 466.8228 143.7554 461.3638 150.3754 459.8538 159.3194 459.5038 160.9454 459.3888 162.8044 459.3888 164.6624L459.3888 195.4424 453.8138 195.4424 453.8138 156.4154zM523.2757 162.5717C523.3907 154.7897 520.1397 143.0587 506.6667 143.0587 494.3537 143.0587 489.1267 153.9767 488.0817 162.5717L523.2757 162.5717zM487.7337 166.9857C487.7337 184.7567 497.4897 191.8417 508.9887 191.8417 517.1197 191.8417 521.3007 190.2157 524.4367 188.7057L525.8317 193.0037C523.7407 194.1647 518.0477 196.6037 508.2917 196.6037 492.2637 196.6037 482.2737 184.9887 482.2737 168.6117 482.2737 150.0277 492.9597 138.4117 507.3617 138.4117 525.5987 138.4117 529.0827 155.6027 529.0827 163.6177 529.0827 165.1277 529.0827 165.9397 528.8497 166.9857L487.7337 166.9857z" mask="url(#vei_logo-d)"/>
    <polygon fill="#10357E" points="0 311.598 5.575 311.598 5.575 233.313 0 233.313" mask="url(#vei_logo-d)"/>
    <path fill="#10357E" d="M26.2508 269.2025C26.2508 264.0925 26.1348 260.2595 25.7858 255.8465L31.0128 255.8465 31.3618 265.8345 31.5948 265.8345C34.6138 259.5625 41.6998 254.5675 50.7578 254.5675 56.1028 254.5675 70.2718 257.2395 70.2718 278.1465L70.2718 311.5985 64.6978 311.5985 64.6978 278.6115C64.6978 268.3905 60.7478 259.2145 49.2488 259.2145 41.4668 259.2145 34.7308 264.7895 32.5228 272.1065 32.1748 273.3845 31.8258 275.2435 31.8258 276.9845L31.8258 311.5985 26.2508 311.5985 26.2508 269.2025zM88.511 311.598L94.086 311.598 94.086 255.846 88.511 255.846 88.511 311.598zM91.067 244.696C88.511 244.696 86.769 242.489 86.769 239.933 86.769 237.378 88.743 235.055 91.299 235.055 93.855 235.055 95.712 237.262 95.712 239.933 95.712 242.489 93.97 244.696 91.182 244.696L91.067 244.696zM120.4535 243.5336L120.4535 255.8466 136.3675 255.8466 136.3675 260.3756 120.4535 260.3756 120.4535 296.6146C120.4535 303.6996 122.6605 308.1136 128.5845 308.1136 131.4875 308.1136 133.5785 307.7646 134.9735 307.3006L135.6695 311.4816C133.8115 312.1796 131.2555 312.7606 127.8875 312.7606 123.8215 312.7606 120.4535 311.4816 118.3625 308.9276 115.8075 306.0226 114.8785 301.2616 114.8785 295.5686L114.8785 260.3756 105.4705 260.3756 105.4705 255.8466 114.8785 255.8466 114.8785 245.6246 120.4535 243.5336zM148.679 311.598L154.254 311.598 154.254 255.846 148.679 255.846 148.679 311.598zM151.234 244.696C148.679 244.696 146.936 242.489 146.936 239.933 146.936 237.378 148.911 235.055 151.467 235.055 154.022 235.055 155.88 237.262 155.88 239.933 155.88 242.489 154.138 244.696 151.35 244.696L151.234 244.696zM202.1097 281.7474C189.9137 281.3984 173.8837 283.2574 173.8837 296.6144 173.8837 304.6294 179.2267 308.2294 185.0357 308.2294 194.3267 308.2294 199.6707 302.5384 201.5277 297.0794 201.9927 295.9174 202.1097 294.6404 202.1097 293.7114L202.1097 281.7474zM207.6837 298.3564C207.6837 302.7704 207.8007 307.3004 208.4967 311.5984L203.3867 311.5984 202.5747 303.5834 202.3417 303.5834C199.5537 307.8814 193.3967 312.8764 184.4547 312.8764 173.1877 312.8764 168.0777 304.9774 168.0777 297.5444 168.0777 284.6504 179.3437 276.8684 202.1097 277.1014L202.1097 275.5914C202.1097 270.1324 201.0627 259.0984 187.8227 259.2144 182.9447 259.2144 177.8347 260.4914 173.7687 263.3954L172.0257 259.3304C177.1367 255.9624 183.4097 254.5674 188.4037 254.5674 204.5477 254.5674 207.6837 266.6474 207.6837 276.5194L207.6837 298.3564zM233.3548 243.5336L233.3548 255.8466 249.2688 255.8466 249.2688 260.3756 233.3548 260.3756 233.3548 296.6146C233.3548 303.6996 235.5618 308.1136 241.4858 308.1136 244.3888 308.1136 246.4808 307.7646 247.8748 307.3006L248.5718 311.4816C246.7118 312.1796 244.1568 312.7606 240.7888 312.7606 236.7228 312.7606 233.3548 311.4816 231.2638 308.9276 228.7088 306.0226 227.7798 301.2616 227.7798 295.5686L227.7798 260.3756 218.3728 260.3756 218.3728 255.8466 227.7798 255.8466 227.7798 245.6246 233.3548 243.5336zM261.58 311.598L267.154 311.598 267.154 255.846 261.58 255.846 261.58 311.598zM264.136 244.696C261.58 244.696 259.838 242.489 259.838 239.933 259.838 237.378 261.812 235.055 264.368 235.055 266.924 235.055 268.782 237.262 268.782 239.933 268.782 242.489 267.039 244.696 264.251 244.696L264.136 244.696zM284.1146 255.8461L297.1236 290.4591C299.3296 295.9171 301.0726 300.5641 302.5826 305.3261L302.8146 305.3261C304.3246 300.6801 306.4156 295.8011 308.5076 290.4591L321.7476 255.8461 327.5546 255.8461 304.9056 311.5981 300.0266 311.5981 278.1906 255.8461 284.1146 255.8461zM373.9027 278.7279C374.0177 270.9459 370.7667 259.2139 357.2937 259.2139 344.9807 259.2139 339.7537 270.1319 338.7087 278.7279L373.9027 278.7279zM338.3607 283.1409C338.3607 300.9129 348.1167 307.9979 359.6157 307.9979 367.7467 307.9979 371.9277 306.3719 375.0647 304.8619L376.4577 309.1599C374.3677 310.3209 368.6757 312.7599 358.9187 312.7599 342.8907 312.7599 332.9017 301.1449 332.9017 284.7669 332.9017 266.1829 343.5867 254.5679 357.9897 254.5679 376.2257 254.5679 379.7107 271.7579 379.7107 279.7729 379.7107 281.2829 379.7107 282.0959 379.4777 283.1409L338.3607 283.1409z" mask="url(#vei_logo-d)"/>
  </g>
</svg>
