<svg xmlns="http://www.w3.org/2000/svg" xmlns:xlink="http://www.w3.org/1999/xlink" width="542" height="176" viewBox="0 0 542 176">
  <defs>
    <path id="visa-logo-a" d="M86.587,0.895 C75.964,0.895 69.79,5.009 65.671,14.834 C46.651,60.195 27.629,105.556 8.617,150.92 C5.958,157.261 3.34,163.618 0.575,170.277 C15.748,170.277 30.495,170.31 45.241,170.181 C46.017,170.175 47.152,168.936 47.494,168.034 C50.016,161.385 52.481,154.709 54.734,147.965 C55.488,145.709 56.472,144.891 58.948,144.911 C75.308,145.041 91.672,145.093 108.03,144.882 C111.308,144.84 112.247,145.978 112.772,148.916 C114.036,155.993 115.637,163.011 117.129,170.184 L157.926,170.184 L157.926,168.979 C156.608,163.262 155.191,157.564 153.989,151.822 C144.61,106.998 135.277,62.164 125.92,17.335 C124.781,11.874 123.588,6.424 122.405,0.895 C114.311,0.895 106.351,0.894 98.437,0.894 C94.48,0.894 90.533,0.895 86.587,0.895 M91.079,47.947 C91.254,47.981 91.43,48.015 91.605,48.049 C95.894,68.615 100.184,89.18 104.532,110.025 L68.574,110.025 C76.131,89.18 83.605,68.563 91.079,47.947"/>
    <linearGradient id="visa-logo-b" x1="-225.126%" x2="98.193%" y1="51.82%" y2="49.844%">
      <stop offset="0%" stop-color="#262860"/>
      <stop offset="100%" stop-color="#3D439A"/>
    </linearGradient>
    <path id="visa-logo-d" d="M82.715,0.88 C81.872,1.084 81.04,1.377 80.184,1.48 C64.782,3.346 50.324,7.788 38.148,17.796 C24.152,29.299 17.387,44.103 19.348,62.335 C20.658,74.512 27.565,83.673 37.102,90.544 C44.543,95.904 52.895,99.986 60.757,104.776 C65.792,107.842 71.102,110.664 75.52,114.484 C82.242,120.297 81.534,129.597 74.152,134.546 C70.749,136.827 66.657,138.599 62.643,139.35 C47.216,142.24 32.332,139.584 17.918,133.777 C14.902,132.561 11.949,131.184 8.805,129.811 C6.122,142.376 3.512,154.599 0.905,166.803 C1.457,167.147 1.771,167.407 2.13,167.554 C3.335,168.048 4.54,168.554 5.777,168.961 C20.023,173.641 34.552,175.997 49.323,176 L49.408,176 C53.738,175.998 58.089,175.795 62.459,175.388 C76.288,174.101 89.558,170.626 101.284,162.846 C119.934,150.474 128.145,132.987 125.377,110.786 C123.813,98.234 116.362,88.949 106.145,82.197 C97.47,76.463 88.098,71.795 79.171,66.427 C75.245,64.065 71.316,61.503 68.001,58.381 C63.193,53.853 63.26,47.645 68.295,43.332 C71.228,40.817 75.001,38.823 78.729,37.784 C87.898,35.228 97.291,36 106.456,38.024 C113.158,39.502 119.677,41.806 126.498,43.805 C128.987,32.169 131.53,20.276 134.136,8.089 C128.966,6.617 124.204,5.053 119.338,3.931 C114.008,2.701 108.583,1.879 103.199,0.88 L82.715,0.88 Z"/>
    <linearGradient id="visa-logo-e" x1="-173.816%" x2="208.036%" y1="51.115%" y2="49.204%">
      <stop offset="0%" stop-color="#262860"/>
      <stop offset="100%" stop-color="#3D439A"/>
    </linearGradient>
    <path id="visa-logo-g" d="M158.327,3.49 C143.996,39.951 129.587,76.381 115.183,112.815 C114.909,113.508 114.489,114.143 113.888,115.273 C113.503,113.374 113.213,112.032 112.958,110.684 C107.143,79.847 101.381,49.001 95.493,18.178 C93.414,7.29 85.473,0.9 74.473,0.897 C51.281,0.889 28.089,0.895 4.898,0.895 C0.065,0.895 0.065,0.895 0,5.975 C0.539,6.11 1.111,6.26 1.686,6.396 C14.672,9.48 27.402,13.273 39.666,18.673 C47.317,22.043 51.396,27.533 53.434,35.57 C64.541,79.383 75.963,123.117 87.197,166.896 C87.844,169.417 88.76,170.402 91.57,170.363 C104.819,170.179 118.074,170.223 131.325,170.334 C133.747,170.353 134.966,169.727 135.962,167.339 C156.873,117.214 177.896,67.138 198.892,17.051 C201.091,11.805 203.26,6.547 205.553,1.033 C204.322,0.975 203.452,0.899 202.583,0.899 C198.777,0.898 194.971,0.9 191.165,0.903 C181.517,0.91 171.869,0.917 162.222,0.841 C162.194,0.841 162.167,0.84 162.14,0.84 C160.048,0.84 159.099,1.524 158.327,3.49"/>
    <linearGradient id="visa-logo-h" x1="14.749%" x2="262.25%" y1="50.153%" y2="48.178%">
      <stop offset="0%" stop-color="#262860"/>
      <stop offset="100%" stop-color="#3D439A"/>
    </linearGradient>
    <path id="visa-logo-j" d="M37.196,0.075 C25.135,56.436 13.105,112.66 0.989,169.281 L4.598,169.281 C16.646,169.281 28.695,169.141 40.738,169.372 C44.097,169.438 45.243,168.409 45.927,165.173 C55.773,118.597 65.766,72.05 75.721,25.497 C77.521,17.079 79.31,8.659 81.139,0.075 L37.196,0.075 Z"/>
    <linearGradient id="visa-logo-k" x1="-196.711%" x2="438.032%" y1="50.761%" y2="48.784%">
      <stop offset="0%" stop-color="#262860"/>
      <stop offset="100%" stop-color="#3D439A"/>
    </linearGradient>
  </defs>
  <g fill="none" fill-rule="evenodd" transform="translate(0 -1)">
    <g transform="translate(384 3.121)">
      <mask id="visa-logo-c" fill="#fff">
        <use xlink:href="#visa-logo-a"/>
      </mask>
      <path fill="url(#visa-logo-b)" d="M86.587,0.895 C75.964,0.895 69.79,5.009 65.671,14.834 C46.651,60.195 27.629,105.556 8.617,150.92 C5.958,157.261 3.34,163.618 0.575,170.277 C15.748,170.277 30.495,170.31 45.241,170.181 C46.017,170.175 47.152,168.936 47.494,168.034 C50.016,161.385 52.481,154.709 54.734,147.965 C55.488,145.709 56.472,144.891 58.948,144.911 C75.308,145.041 91.672,145.093 108.03,144.882 C111.308,144.84 112.247,145.978 112.772,148.916 C114.036,155.993 115.637,163.011 117.129,170.184 L157.926,170.184 L157.926,168.979 C156.608,163.262 155.191,157.564 153.989,151.822 C144.61,106.998 135.277,62.164 125.92,17.335 C124.781,11.874 123.588,6.424 122.405,0.895 C114.311,0.895 106.351,0.894 98.437,0.894 C94.48,0.894 90.533,0.895 86.587,0.895 M91.079,47.947 C91.254,47.981 91.43,48.015 91.605,48.049 C95.894,68.615 100.184,89.18 104.532,110.025 L68.574,110.025 C76.131,89.18 83.605,68.563 91.079,47.947" mask="url(#visa-logo-c)"/>
    </g>
    <g transform="translate(261 .121)">
      <mask id="visa-logo-f" fill="#fff">
        <use xlink:href="#visa-logo-d"/>
      </mask>
      <path fill="url(#visa-logo-e)" d="M82.715,0.88 C81.872,1.084 81.04,1.377 80.184,1.48 C64.782,3.346 50.324,7.788 38.148,17.796 C24.152,29.299 17.387,44.103 19.348,62.335 C20.658,74.512 27.565,83.673 37.102,90.544 C44.543,95.904 52.895,99.986 60.757,104.776 C65.792,107.842 71.102,110.664 75.52,114.484 C82.242,120.297 81.534,129.597 74.152,134.546 C70.749,136.827 66.657,138.599 62.643,139.35 C47.216,142.24 32.332,139.584 17.918,133.777 C14.902,132.561 11.949,131.184 8.805,129.811 C6.122,142.376 3.512,154.599 0.905,166.803 C1.457,167.147 1.771,167.407 2.13,167.554 C3.335,168.048 4.54,168.554 5.777,168.961 C20.023,173.641 34.552,175.997 49.323,176 L49.408,176 C53.738,175.998 58.089,175.795 62.459,175.388 C76.288,174.101 89.558,170.626 101.284,162.846 C119.934,150.474 128.145,132.987 125.377,110.786 C123.813,98.234 116.362,88.949 106.145,82.197 C97.47,76.463 88.098,71.795 79.171,66.427 C75.245,64.065 71.316,61.503 68.001,58.381 C63.193,53.853 63.26,47.645 68.295,43.332 C71.228,40.817 75.001,38.823 78.729,37.784 C87.898,35.228 97.291,36 106.456,38.024 C113.158,39.502 119.677,41.806 126.498,43.805 C128.987,32.169 131.53,20.276 134.136,8.089 C128.966,6.617 124.204,5.053 119.338,3.931 C114.008,2.701 108.583,1.879 103.199,0.88 L82.715,0.88 Z" mask="url(#visa-logo-f)"/>
    </g>
    <g transform="translate(0 3.121)">
      <mask id="visa-logo-i" fill="#fff">
        <use xlink:href="#visa-logo-g"/>
      </mask>
      <path fill="url(#visa-logo-h)" d="M158.327,3.49 C143.996,39.951 129.587,76.381 115.183,112.815 C114.909,113.508 114.489,114.143 113.888,115.273 C113.503,113.374 113.213,112.032 112.958,110.684 C107.143,79.847 101.381,49.001 95.493,18.178 C93.414,7.29 85.473,0.9 74.473,0.897 C51.281,0.889 28.089,0.895 4.898,0.895 C0.065,0.895 0.065,0.895 0,5.975 C0.539,6.11 1.111,6.26 1.686,6.396 C14.672,9.48 27.402,13.273 39.666,18.673 C47.317,22.043 51.396,27.533 53.434,35.57 C64.541,79.383 75.963,123.117 87.197,166.896 C87.844,169.417 88.76,170.402 91.57,170.363 C104.819,170.179 118.074,170.223 131.325,170.334 C133.747,170.353 134.966,169.727 135.962,167.339 C156.873,117.214 177.896,67.138 198.892,17.051 C201.091,11.805 203.26,6.547 205.553,1.033 C204.322,0.975 203.452,0.899 202.583,0.899 C198.777,0.898 194.971,0.9 191.165,0.903 C181.517,0.91 171.869,0.917 162.222,0.841 C162.194,0.841 162.167,0.84 162.14,0.84 C160.048,0.84 159.099,1.524 158.327,3.49" mask="url(#visa-logo-i)"/>
    </g>
    <g transform="translate(187 4.121)">
      <mask id="visa-logo-l" fill="#fff">
        <use xlink:href="#visa-logo-j"/>
      </mask>
      <path fill="url(#visa-logo-k)" d="M37.196,0.075 C25.135,56.436 13.105,112.66 0.989,169.281 L4.598,169.281 C16.646,169.281 28.695,169.141 40.738,169.372 C44.097,169.438 45.243,168.409 45.927,165.173 C55.773,118.597 65.766,72.05 75.721,25.497 C77.521,17.079 79.31,8.659 81.139,0.075 L37.196,0.075 Z" mask="url(#visa-logo-l)"/>
    </g>
  </g>
</svg>
